<svg id="Layer_1" data-name="Layer 1" xmlns="http://www.w3.org/2000/svg" viewBox="0 0 640.04 365.36"><defs><style>.cls-1{fill:#fff;}</style></defs><path class="cls-1" d="M324.63,53.92a5.4,5.4,0,0,1-1.78,1.34c-13.09,8.56-20.37,21-21.21,37.44a43.14,43.14,0,0,0,26.6,42c10.18,4.15,20.25,5,30.27,2.37a5.87,5.87,0,0,0,1.22-.42,2.4,2.4,0,0,0-1.08-4.5,8.8,8.8,0,0,0-2.54.49A40.29,40.29,0,1,1,338.5,54.06a7.1,7.1,0,0,1,1.59-.17c6.14,0,12.27,0,18.4,0a51.75,51.75,0,0,1,50.06,42.59,50.53,50.53,0,0,1,.77,8.67c0,22.41-.08,44.82,0,67.22a18.89,18.89,0,0,1-37.74,1.29c-.07-1.61-.06-1.63,1.58-1.63,4.15,0,8.31,0,12.46,0,1,0,1.68,0,1.8,1.38a2.73,2.73,0,0,0,3,2.27,2.84,2.84,0,0,0,2.77-2.74c0-3.7.38-7.42-.27-11.11a15.24,15.24,0,0,0-30.18,2.26c-.15,8.23-.05,16.46-.05,24.69a14.81,14.81,0,0,0,0,1.49c.08.85-.2,1.3-1.13,1.21-.37,0-.74,0-1.11,0H320.86c-.37,0-.75,0-1.12,0-.87.08-1.2-.27-1.17-1.17a23.65,23.65,0,0,0-.72-6.8,22,22,0,0,0-43.19,5.28c-.07,3.73-.05,2.28-7.48,2.84a194,194,0,0,1-31.43,0c-5.5-.47-5,.76-5-2.21,0-27.79.1-55.58,0-83.37a51.93,51.93,0,0,1,45.65-51.8,50.16,50.16,0,0,1,6-.33C296.35,53.91,310.37,53.92,324.63,53.92Z"/><path class="cls-1" d="M450.68,244.22a17.06,17.06,0,0,0-2.92,3.57c-5.9,7.76-11.66,15.61-17.6,23.34-3.83,5-7.58,10-11.37,15.05-.82,1.08-1.67,2.14-2.52,3.2-.67.84-.79.85-1.48-.06-2.26-3-4.5-6-6.77-9q-6.7-8.84-13.45-17.66c-3.17-4.17-6.3-8.38-9.47-12.55-1.47-2-3-3.89-4.63-6a4.94,4.94,0,0,0-.23,2.17q0,29.81,0,59.61c0,2.72.2,2.46-2.52,2.47-3.16,0-6.32,0-9.48,0-1.3,0-1.33-.07-1.39-1.38,0-.31,0-.62,0-.92V223.73c0-2.46-.2-2.35,2.28-2.35,3.16,0,6.32.08,9.48,0a3,3,0,0,1,2.78,1.38c2.64,3.56,5.32,7.11,8,10.65q6.87,9.08,13.75,18.13c3.53,4.67,7,9.37,10.56,14,.56.74,1.17,1.43,1.71,2.1.55.05.7-.31.92-.61,6.52-8.67,13-17.38,19.6-26,3.8-4.94,7.5-9.94,11.28-14.9l2.93-3.81a2.36,2.36,0,0,1,2.08-1c3.53,0,7.06,0,10.59,0,1.42,0,1.42.05,1.46,1.49,0,.31,0,.61,0,.92q0,41,0,82.08c0,2.63.2,2.43-2.38,2.43h-8.55c-2.72,0-2.45.19-2.45-2.55q0-17.91,0-35.83,0-11.9,0-23.77A4.45,4.45,0,0,0,450.68,244.22Z"/><path class="cls-1" d="M492.85,221.51h4c3.7,0,7.39,0,11.08,0a3,3,0,0,1,2.27,1q13.16,15.25,26.36,30.46c3.21,3.69,6.44,7.36,9.65,11,.89,1,.88,1.05,0,2.1q-18,20.75-36,41.5a2.65,2.65,0,0,1-2.2,1.08c-4.64-.05-9.29,0-13.93,0-.3,0-.62.09-.89-.2,0-.56.45-.82.75-1.17l35.36-40.84a2.92,2.92,0,0,1,.37-.41c.78-.64.76-1.19.06-2-1.68-1.81-3.26-3.72-4.88-5.59l-31.24-36.06C493.43,222.24,493.28,222,492.85,221.51Z"/><path class="cls-1" d="M303.08,234.51H278.52c-.42,0-.84,0-1.26,0-1.12,0-1.36-.67-.84-2.57a14,14,0,0,0,.08-7.46c-.66-2.34-.36-3.06.87-3,.36,0,.72,0,1.09,0H328a2.33,2.33,0,0,1,2.34,2.33q0,4.28,0,8.55c0,2.25.09,2.12-2.21,2.12Z"/><path class="cls-1" d="M303.26,308.51H278.53c-.42,0-.84,0-1.26,0-1.12,0-1.36-.69-.83-2.58a13.81,13.81,0,0,0,.08-7.41c-.67-2.36-.38-3.1.86-3,.36,0,.72,0,1.08,0H328a2.33,2.33,0,0,1,2.34,2.33c0,2.91,0,5.82,0,8.73,0,1.93,0,1.93-2,1.93Z"/><path class="cls-1" d="M309.93,265v18.36c0,.36,0,.73,0,1.08.07.91-.3,1.31-1.25,1.28-1.44,0-2.88,0-4.32,0H298.6c-1.65,0-1.65,0-1.67-1.74V246.18c0-.36,0-.72,0-1.08-.07-1,.46-1.32,1.76-1.13a31.17,31.17,0,0,0,9.25,0c1.6-.26,2,.13,2,1.23,0,2.28,0,4.56,0,6.84Z"/><path class="cls-1" d="M584.67,221.36l-29.51,34.06c-2.62-3-5.12-5.93-7.65-8.8-.49-.56-.37-.93.07-1.41,1-1.11,1.95-2.24,2.92-3.36l16.88-19.5c.44-.51.81-1,1.64-1C574.08,221.38,579.14,221.36,584.67,221.36Z"/><path class="cls-1" d="M584.39,308.06a1.58,1.58,0,0,1-1.37.34c-4.45,0-8.91,0-13.36,0a2.79,2.79,0,0,1-2.36-1.11q-9.57-11.1-19.18-22.17a6.55,6.55,0,0,0-.49-.56c-.56-.51-.57-1,0-1.55,2.5-2.83,4.95-5.69,7.58-8.72Z"/><path class="cls-1" d="M242.91,306.94c-2.56-3.55-5.15-7.08-7.7-10.64q-7.4-10.29-14.77-20.6A1.1,1.1,0,0,1,221,274a29.54,29.54,0,0,0,12.74-9.43,27.27,27.27,0,0,0,5.1-10.79,33.89,33.89,0,0,0,.32-7.66,18,18,0,0,0-1.18-6.49,27.58,27.58,0,0,0-8.41-11.66A27.9,27.9,0,0,0,212,221.41c-15.61-.08-31.23,0-46.84,0-2.34,0-2.21-.13-2.21,2.24v82.07c0,.37,0,.74,0,1.11,0,1.24,0,1.45.92,1.49,3.27.16,6.56.12,9.83,0,2.59-.07,2.62.27,2.64-1.63,0-2.6,0-5.2,0-7.8q0-10.39,0-20.79c0-1.73,0-1.74,1.76-1.75s3.59,0,5.39,0h19.33a2.27,2.27,0,0,1,2.24.89c3.85,5.51,7.8,11,11.7,16.43q4.78,6.7,9.54,13.43a2.63,2.63,0,0,0,2.51,1.24,16.43,16.43,0,0,1,3.71,0c3.7.62,7.4.1,11.19.33A2.66,2.66,0,0,0,242.91,306.94Zm-38-43.68c-8.25-1-16.56-.55-24.85.19-.63.06-1.27,0-1.9,0-.86,0-1.26-.32-1.21-1.2,0-.43,0-.86,0-1.3V236.12c0-1.57,0-1.57,1.53-1.61h15.78c4.65,0,9.29,0,13.93,0a19,19,0,0,1,12.53,4.3,11.74,11.74,0,0,1,4.61,9.29c.06,5.76-2.71,9.81-7.4,12.76C214,263.3,209.58,263.84,204.89,263.26Z"/><path class="cls-1" d="M130.47,246a32.35,32.35,0,0,0-.86-5.27,26,26,0,0,0-6.88-11.25,27.16,27.16,0,0,0-19.5-8.07c-15.36-.07-30.73,0-46.09,0-2.34,0-2.21-.13-2.21,2.23V306c0,2.37-.13,2.28,2.18,2.27H66c2.47,0,2.29.11,2.29-2.34q0-14,0-28c0-1.8.13-1.91,1.87-1.95h1.3q15.7,0,31.41,0a21.58,21.58,0,0,0,4.94-.64,30.29,30.29,0,0,0,16.29-9.71,24.81,24.81,0,0,0,5.88-12A24.31,24.31,0,0,0,130.47,246Zm-14.81,7.66c-2.49,5.29-6.77,8.33-12.49,9.46a22.24,22.24,0,0,1-4.07.36c-9.35,0-18.7,0-28,0l-1.14,0a.9.9,0,0,1-.9-.9c0-.37,0-.74,0-1.11q0-12.45,0-24.89c0-2.08,0-2.08,2.17-2.08h29.2A17.68,17.68,0,0,1,113.48,240C117.05,243.66,117.52,249.68,115.66,253.66Z"/></svg>